<svg xmlns="http://www.w3.org/2000/svg" width="52" height="52" viewBox="0 0 52 52" fill="none">
<path d="M19.1865 51.0795C21.4062 51.687 23.6969 51.9965 25.9983 52L26.3649 51.9974C27.6787 51.981 28.9671 51.6328 30.1103 50.985C31.2535 50.3372 32.2144 49.4109 32.9037 48.2922C34.3129 46.0144 34.4637 43.214 33.3015 40.8037L32.7867 39.7246C31.609 37.2753 32.5345 35.0547 33.7955 33.7937C35.0565 32.5326 37.282 31.6069 39.7234 32.7848H39.726L40.7998 33.3022C41.9805 33.8732 43.2864 34.1361 44.5961 34.0666C45.9058 33.997 47.1766 33.5972 48.2902 32.9044C49.4094 32.2155 50.3363 31.2547 50.9845 30.1114C51.6328 28.968 51.9813 27.6792 51.9977 26.365C52.0302 23.9416 51.7212 21.5257 51.0799 19.1885C48.3812 9.2377 39.7624 1.62702 29.6408 0.246329C21.4536 -0.863941 13.4146 1.81163 7.61675 7.6126C1.81889 13.4136 -0.869446 21.4403 0.248527 29.6386C1.62649 39.7636 9.23911 48.3806 19.1865 51.0795ZM35.0981 10.3974C36.1324 10.3974 37.1244 10.8083 37.8557 11.5397C38.5871 12.2712 38.998 13.2632 38.998 14.2976C38.998 15.332 38.5871 16.3241 37.8557 17.0555C37.1244 17.7869 36.1324 18.1979 35.0981 18.1979C34.0638 18.1979 33.0718 17.7869 32.3404 17.0555C31.6091 16.3241 31.1982 15.332 31.1982 14.2976C31.1982 13.2632 31.6091 12.2712 32.3404 11.5397C33.0718 10.8083 34.0638 10.3974 35.0981 10.3974ZM22.0984 7.79721C23.1327 7.79721 24.1247 8.20812 24.8561 8.93956C25.5874 9.671 25.9983 10.663 25.9983 11.6975C25.9983 12.7319 25.5874 13.7239 24.8561 14.4553C24.1247 15.1868 23.1327 15.5977 22.0984 15.5977C21.0641 15.5977 20.0721 15.1868 19.3407 14.4553C18.6094 13.7239 18.1985 12.7319 18.1985 11.6975C18.1985 10.663 18.6094 9.671 19.3407 8.93956C20.0721 8.20812 21.0641 7.79721 22.0984 7.79721ZM18.1985 35.1145C18.1985 36.1489 17.7876 37.141 17.0562 37.8724C16.3249 38.6039 15.3329 39.0148 14.2986 39.0148C13.2643 39.0148 12.2723 38.6039 11.5409 37.8724C10.8096 37.141 10.3987 36.1489 10.3987 35.1145C10.3987 34.0801 10.8096 33.0881 11.5409 32.3566C12.2723 31.6252 13.2643 31.2143 14.2986 31.2143C15.3329 31.2143 16.3249 31.6252 17.0562 32.3566C17.7876 33.0881 18.1985 34.0801 18.1985 35.1145ZM11.6987 18.2135C12.7333 18.2138 13.7255 18.6252 14.4568 19.3571C15.1882 20.089 15.5989 21.0816 15.5986 22.1163C15.5982 23.1511 15.1869 24.1433 14.455 24.8747C13.7231 25.6062 12.7307 26.0169 11.6961 26.0166C10.6614 26.0162 9.66924 25.6048 8.93786 24.8729C8.20649 24.141 7.7958 23.1485 7.79615 22.1137C7.79649 21.079 8.20784 20.0867 8.9397 19.3553C9.67156 18.6238 10.664 18.2131 11.6987 18.2135Z" fill="#3A1FFF"/>
</svg>