<svg xmlns="http://www.w3.org/2000/svg" width="51" height="49" viewBox="0 0 51 49" fill="none">
<path d="M50.9141 15.3334C50.9144 14.8721 50.7887 14.4195 50.5507 14.0244L43.6653 2.54879C43.2117 1.7986 42.5727 1.17775 41.8097 0.745967C41.0468 0.314187 40.1856 0.086006 39.3089 0.083374H11.6861C9.91198 0.083374 8.2421 1.02887 7.32964 2.55133L0.444269 14.0244C0.206241 14.4195 0.0805719 14.8721 0.0808109 15.3334C0.0808109 17.8877 1.06189 20.1981 2.62248 21.9875V45.8334C2.62248 46.5075 2.89026 47.154 3.36691 47.6306C3.84357 48.1073 4.49005 48.375 5.16414 48.375H25.4975C26.1716 48.375 26.8181 48.1073 27.2947 47.6306C27.7714 47.154 28.0391 46.5075 28.0391 45.8334V33.125H38.2058V45.8334C38.2058 46.5075 38.4736 47.154 38.9502 47.6306C39.4269 48.1073 40.0734 48.375 40.7475 48.375H45.8308C46.5049 48.375 47.1514 48.1073 47.628 47.6306C48.1047 47.154 48.3725 46.5075 48.3725 45.8334V21.9875C49.9331 20.1981 50.9141 17.8877 50.9141 15.3334ZM45.7901 15.9713C45.6338 17.1987 45.0356 18.3271 44.1074 19.1453C43.1793 19.9635 41.9848 20.4155 40.7475 20.4167C37.944 20.4167 35.6641 18.1368 35.6641 15.3334C35.6641 15.1605 35.6006 15.008 35.565 14.8454L35.6158 14.8352L33.6816 5.16671H39.3089L45.7901 15.9713ZM20.4319 15.4986L22.4958 5.16671H28.4966L30.563 15.4986C30.4741 18.2258 28.2425 20.4167 25.4975 20.4167C22.7525 20.4167 20.5209 18.2258 20.4319 15.4986ZM11.6861 5.16671H17.3133L15.3816 14.8352L15.4325 14.8454C15.3944 15.008 15.3308 15.1605 15.3308 15.3334C15.3308 18.1368 13.0509 20.4167 10.2475 20.4167C9.01017 20.4155 7.81569 19.9635 6.88754 19.1453C5.9594 18.3271 5.36117 17.1987 5.20481 15.9713L11.6861 5.16671ZM20.4141 35.6667H10.2475V28.0417H20.4141V35.6667Z" fill="#3A1FFF"/>
</svg>