<svg xmlns="http://www.w3.org/2000/svg" width="52" height="53" viewBox="0 0 52 53" fill="none">
<g clip-path="url(#clip0_3_331)">
<path d="M17.6237 51.4198C18.1301 51.7304 18.6838 51.8182 19.2713 51.8182C27.9075 51.8182 36.5506 51.8182 45.1868 51.8182C46.3145 51.8182 47.4219 51.6966 48.4145 51.089C50.0958 50.0628 51.1222 48.6314 51.264 46.606C51.3315 45.6338 51.318 44.6683 51.318 43.7029C51.318 31.5502 51.318 19.3975 51.318 7.2448C51.318 4.59821 50.1904 2.67404 47.7528 1.58029C46.983 1.23597 46.1389 1.18871 45.3151 1.18871C36.5911 1.18196 27.8603 1.18871 19.1362 1.18196C18.569 1.18196 18.0558 1.53303 17.5562 1.53303C17.0565 1.53303 16.5433 1.18196 15.9761 1.18196C12.8768 1.18871 9.77743 1.20896 6.67809 1.18196C3.5855 1.1482 1.36397 3.07237 0.817032 5.6717C0.708994 6.18481 0.681984 6.72493 0.681984 7.25155C0.675232 20.0861 0.681984 32.9207 0.675232 45.7553C0.675232 48.4019 1.80288 50.3261 4.24048 51.4198C5.01025 51.7641 5.8543 51.8114 6.67809 51.8114C9.77743 51.8249 12.8768 51.8114 15.9761 51.8249C16.5433 51.8249 17.0565 51.6561 17.5562 51.4266" stroke="#3A1FFF" stroke-width="2" stroke-linecap="round" stroke-linejoin="round"/>
<path d="M17.5562 1.64099V51.3522" stroke="#3A1FFF" stroke-width="2" stroke-linecap="round" stroke-linejoin="round"/>
<path d="M12.6134 9.62122H5.62473" stroke="#3A1FFF" stroke-width="2" stroke-linecap="round" stroke-linejoin="round"/>
<path d="M12.6134 18.0607H5.62473" stroke="#3A1FFF" stroke-width="2" stroke-linecap="round" stroke-linejoin="round"/>
<path d="M12.6134 26.5H5.62473" stroke="#3A1FFF" stroke-width="2" stroke-linecap="round" stroke-linejoin="round"/>
</g>
<defs>
<clipPath id="clip0_3_331">
<rect width="52" height="52" fill="white" transform="translate(0 0.5)"/>
</clipPath>
</defs>
</svg>