<svg xmlns="http://www.w3.org/2000/svg" width="52" height="53" viewBox="0 0 52 53" fill="none">
<path d="M13.941 20.587C13.5576 20.2755 13.0828 20.098 12.5891 20.0814H10.5641V32.209H12.5891C13.0837 32.1926 13.5595 32.0151 13.9439 31.7034C14.3916 31.3654 14.617 30.8599 14.617 30.1868V22.1037C14.6199 21.4306 14.3888 20.925 13.941 20.587ZM46.9014 0.125H5.09572C2.28498 0.125 0.00577746 2.39856 0 5.20945V47.0406C0.00577746 49.8514 2.28498 52.125 5.09572 52.125H46.9043C49.715 52.125 51.9942 49.8514 52 47.0406V5.20945C51.9962 3.85964 51.4573 2.56642 50.5016 1.61332C49.5458 0.660214 48.2511 0.124995 46.9014 0.125ZM17.8957 30.2099C17.8957 32.391 16.5495 35.7017 12.2858 35.693H6.90117V16.4906H12.3984C16.512 16.4906 17.8928 19.7954 17.8957 21.9766V30.2099ZM29.5806 19.9197H23.3987V24.3801H27.18V27.8121H23.3987V32.2697H29.5864V35.7017H22.3703C21.7479 35.7172 21.1448 35.4849 20.6935 35.0558C20.2423 34.6268 19.9799 34.0361 19.964 33.4137V18.8941C19.9493 18.2721 20.1819 17.6697 20.6108 17.2191C21.0398 16.7685 21.63 16.5065 22.2519 16.4906H29.5864L29.5806 19.9197ZM41.6121 33.301C40.0782 36.8688 37.3339 36.161 36.1062 33.301L31.6345 16.4934H35.4158L38.8621 29.6928L42.2939 16.4934H46.0781L41.6121 33.301Z" fill="#3A1FFF"/>
</svg>